<svg id="Capa_1" data-name="Capa 1" xmlns="http://www.w3.org/2000/svg" viewBox="0 0 150 150"><defs><style>.cls-1{fill:#2ebaeb;}</style></defs><title>POL CATEGORIAS</title><path class="cls-1" d="M75.09,142H48.2c-3.67,0-4.76-1.1-4.78-4.81,0-1.74-.39-3.59.06-5.2,2.8-9.9.93-20,1.27-30s0-20.2.09-30.3a58.27,58.27,0,0,1,.37-6.6c.84-7.16,4.1-12.76,10.67-16.18C58,47.85,60,46.68,62,45.5a8.74,8.74,0,0,0,4.46-7.81c.08-4.82.05-9.64,0-14.45A2.13,2.13,0,0,0,66,21.67c-1.48-1-1.67-2.48-1.67-4.07,0-1.87-.06-3.75,0-5.62.11-2.6,1.28-3.87,3.85-3.92q6.91-.12,13.84,0c2.58,0,3.77,1.34,3.83,3.91.06,2.14.1,4.28,0,6.42a3.63,3.63,0,0,1-.88,2.52c-1.33.92-1.22,2.09-1.21,3.35,0,4.28,0,8.56,0,12.84A9.39,9.39,0,0,0,89,46a92.68,92.68,0,0,1,8.44,5c4.84,3.37,6.81,8.45,7.53,14.06a55.89,55.89,0,0,1,.36,7.21c0,18.13,0,36.26,0,54.38a12.47,12.47,0,0,0,.77,3,12.58,12.58,0,0,1,.51,2.31c.08,1.74,0,3.48,0,5.22,0,3.75-1,4.79-4.74,4.8Zm27-69.13c-3-1.15-6-2.09-8.77-3.35S87.72,66.7,85,65.15a31.13,31.13,0,0,0-35.86,3.7,2.65,2.65,0,0,0-1,1.55c-.07,5.32,0,10.64,0,16H102.1Zm-54,40.21h54V89.89H48.11ZM69.72,22.2v2.31c0,4.42.06,8.83-.07,13.24a12.35,12.35,0,0,1-7,11.13C60.6,50,58.54,51.1,56.51,52.27c-4.8,2.79-7.26,7.07-8,12.73l2.37-1.46c10.47-6.32,21.37-7.72,32.7-2.57,3.77,1.71,7.33,3.86,11.07,5.64,2.32,1.1,4.79,1.88,7.46,2.9-.11-1.57-.14-2.7-.28-3.81-.66-5.57-2.78-10.3-7.86-13.25-2.14-1.23-4.32-2.41-6.48-3.6-3.37-1.87-5.88-4.47-6.52-8.4a44.86,44.86,0,0,1-.44-6.57c-.06-3.86,0-7.72,0-11.68Zm32.34,94.4H48.2v11.19h53.86Zm-55.41,22h56.66v-7.48H49.38a9.61,9.61,0,0,1-1.2,0c-1.11-.11-1.58.33-1.55,1.47C46.69,134.56,46.65,136.49,46.65,138.64ZM82.46,18.8V11.39H67.71V18.8Z"/><path class="cls-1" d="M74.93,98.59H53.87c-1.16,0-2.51.09-2.57-1.5s1.33-1.74,2.58-1.74H96.41c1.21,0,2.47.16,2.47,1.67s-1.29,1.58-2.49,1.58Z"/><path class="cls-1" d="M74.94,107.48H56.69c-1.15,0-2.53.12-2.57-1.48s1.3-1.74,2.58-1.74H93.39c.4,0,.91-.12,1.18.07a13.63,13.63,0,0,1,1.55,1.58c-.58.51-1.14,1.45-1.74,1.48-3.07.15-6.14.08-9.22.08Z"/></svg>