<svg id="Capa_1" data-name="Capa 1" xmlns="http://www.w3.org/2000/svg" viewBox="0 0 150 150"><defs><style>.cls-1{fill:#2ebaeb;}</style></defs><title>POL CATEGORIAS</title><path class="cls-1" d="M120,132.65c3-.72,5.85-1.39,8.69-2.1,1.18-.3,2.42-.6,2.78,1,.3,1.37-.71,1.81-1.89,2.1q-10.47,2.53-20.91,5.15c-1.19.3-2.45.54-2.78-1s.93-1.84,2.11-2.12c2.79-.67,5.56-1.39,8.63-2.17-.87-3.63-1.69-7.16-2.55-10.68-1.76-7.19-3.58-14.35-5.28-21.55-.36-1.57-.78-2.36-2.65-2.58-4.57-.53-7.77-3.54-10.6-6.86A56.18,56.18,0,0,1,83.79,68.28c-2.26-9.34-3.86-18.84-5.57-28.3-.72-4-.4-4.18,3.5-5.13,8.16-2,16.34-3.89,24.47-6,2.07-.54,3.2,0,3.81,1.89,2.4,7.36,4.88,14.7,7.12,22.12A72.9,72.9,0,0,1,120.29,79c-.31,4.61-1.05,9.2-3.44,13.24-1.1,1.86-2.86,3.33-4.24,5-.47.58-1.08,1.46-.94,2.05,2.55,10.75,5.2,21.48,7.83,32.22A11.17,11.17,0,0,0,120,132.65ZM111.54,45c-8.12,1.91-15.94,3.7-23.74,5.58-4.4,1.06-4.48,1.14-3.63,5.55C86.09,66.18,88.74,76,94.32,84.76c2.6,4.08,5.43,8,10,10.08,3.42,1.56,6.3.84,8.57-2.16,2.8-3.7,3.62-8.09,4-12.55a73.9,73.9,0,0,0-2.7-26C113.38,51.11,112.46,48.12,111.54,45Zm-.87-3.12c-1.13-3.09-2.12-6-3.28-8.82a1.88,1.88,0,0,0-1.65-.66c-2.18.4-4.33,1-6.49,1.5l-18,4.44,1.39,10.14Z"/><path class="cls-1" d="M33.61,133.49l8.73,2.2c1.12.28,2.23.72,1.84,2.12s-1.43,1.26-2.63,1q-10.35-2.58-20.73-5c-1.29-.3-2.61-.73-2.23-2.28s1.78-1.28,3-.94c2.76.74,5.54,1.44,8.58,2.22.36-1.36.7-2.57,1-3.8q3.54-14.33,7.07-28.66c.34-1.34.3-2.32-1.1-3.27-3.61-2.43-5.12-6.28-6.18-10.3-2-7.58-1.76-15.27-.52-22.91a161.62,161.62,0,0,1,9.26-32.24c1.49-3.86,1.39-3.29,4.63-2.5,8.52,2.05,17,4.13,25.56,6.12,2,.47,2.27,1.78,2,3.4C71,44.49,70.12,50.39,69,56.25c-1.54,8.35-3.52,16.59-7.35,24.26-2.81,5.63-5.94,11.09-11.09,14.9a25.32,25.32,0,0,1-7.11,3.22c-1.07.36-1.74.6-2,1.75q-3.87,15.91-7.79,31.82A8.6,8.6,0,0,0,33.61,133.49ZM38.52,45c-.61,2-1.2,3.91-1.77,5.81-2.88,9.64-4.6,19.43-3.64,29.53.4,4.24,1.13,8.42,3.73,12,2.48,3.39,5.37,4.42,9,2.31a27.14,27.14,0,0,0,7.54-6.53C59,80.9,62.13,72.41,64.27,63.54c.93-3.88,1.65-7.8,2.5-11.85Zm.86-3.13c9.12,2.12,17.91,4.18,26.7,6.17a1.64,1.64,0,0,0,1.38-.8c.45-2.61.8-5.25,1.05-7.88a1.71,1.71,0,0,0-1-1.27c-7.72-2-15.45-3.85-23.2-5.65a2.17,2.17,0,0,0-1.8,1C41.38,36.14,40.48,38.86,39.38,41.91Z"/><path class="cls-1" d="M73.37,18.07a38.42,38.42,0,0,1,.08-5.15c.09-.7,1-1.28,1.56-1.92.55.63,1.54,1.24,1.57,1.9.16,3.43.16,6.88,0,10.31,0,.66-1,1.28-1.56,1.92-.54-.64-1.47-1.22-1.57-1.91A40.16,40.16,0,0,1,73.37,18.07Z"/><path class="cls-1" d="M66.8,26c-.29.38-.54,1.05-1,1.19a2.06,2.06,0,0,1-1.75-.2c-2.69-2.57-5.33-5.18-7.86-7.9a2.13,2.13,0,0,1,.13-2,1.88,1.88,0,0,1,1.85-.18C61,19.49,63.69,22.25,66.39,25A3.31,3.31,0,0,1,66.8,26Z"/><path class="cls-1" d="M84.76,27.49c-.35-.27-1-.53-1.13-.95a2,2,0,0,1,.16-1.73c2.57-2.7,5.19-5.34,7.91-7.88a2.21,2.21,0,0,1,2,.12,1.89,1.89,0,0,1,.19,1.85c-2.65,2.81-5.41,5.52-8.16,8.23C85.6,27.31,85.26,27.32,84.76,27.49Z"/></svg>