<svg id="Capa_1" data-name="Capa 1" xmlns="http://www.w3.org/2000/svg" viewBox="0 0 150 150"><defs><style>.cls-1{opacity:0.81;}.cls-2{fill:#2ebaeb;}.cls-3{opacity:0.8;}</style></defs><title>POL CATEGORIAS</title><g class="cls-1"><path class="cls-2" d="M48.69,107.41A54,54,0,0,1,43.17,106c-4.87-1.8-7.56-5.64-9.19-10.35-1.73-5-2-10.12-1.82-15.31A97.77,97.77,0,0,1,35,61.17a2.15,2.15,0,0,1,2.41-2c7.41,0,14.83,0,22.24,0,.23,0,.45,0,.68,0,4-.3,3.69-.19,4.57,3.6,2.15,9.25,3.4,18.6,2,28.07-.66,4.47-2.19,8.71-5.55,12a14.13,14.13,0,0,1-8.7,4c-1.1.12-1.4.5-1.39,1.58.1,8.43.14,16.85.19,25.28,0,2.13.08,4.27,0,6.4-.05,1.2.38,1.63,1.53,1.59,1.74-.05,3.48-.1,5.22,0,.89,0,2.2-.22,2.24,1.15s-1.18,1.36-2.22,1.37c-5.51,0-11,.09-16.52,0A2.12,2.12,0,0,1,40,143.18c-.24-1.11.76-1.36,1.65-1.38,2,0,3.93-.05,5.89,0,1,0,1.4-.26,1.39-1.33q-.15-14.83-.22-29.67C48.66,109.68,48.68,108.56,48.69,107.41ZM35.45,71.8c-.19,1.76-.35,3.15-.48,4.55a50.75,50.75,0,0,0,.81,16.58c2.47,10,9.78,13.27,18.77,11,6-1.49,8.26-6.39,9.45-11.82,1.47-6.69,1-13.41-.06-20.11a2.56,2.56,0,0,0-1.2-1.56,13.47,13.47,0,0,0-12.64-.18c-3.09,1.49-6.22,2.67-9.69,2.41C38.81,72.55,37.23,72.12,35.45,71.8Zm.42-2.34c1.36.25,2.59.58,3.84.68a15.25,15.25,0,0,0,8.61-1.82,15.91,15.91,0,0,1,11.42-1.56l3.55.84c-.37-1.73-.72-3.25-1-4.77-.18-.95-.65-1.24-1.63-1.21-2.7.09-5.39.05-8.09.07-4.71,0-9.42,0-14.13.12-.44,0-1.17.38-1.24.7C36.7,64.68,36.34,66.89,35.87,69.46Z"/></g><g class="cls-3"><path class="cls-2" d="M117.88,144.5H75.51L75.39,142c0-.59-.07-1.14-.07-1.68q0-40,0-80c0-5.5.68-11.8,5.67-16.76A23.31,23.31,0,0,1,84.26,41c.74-.51,1.43-1,2.07-1.53a2.92,2.92,0,0,0,.72-.82c.06-5.06.06-10.21.06-15.19q0-3.86,0-7.72v-.39a36.56,36.56,0,0,1,.27-5.3c.39-2.71,2.4-4.39,5.38-4.47,2.28-.07,5-.12,7.72,0A6.11,6.11,0,0,1,104.8,7.8a7.85,7.85,0,0,1,1.83,5.85c-.25,2.3-.42,4.22-.44,6.14,0,3,0,5.93,0,8.89,0,3.13,0,6.26,0,9.38,0,.91,0,1.09.87,1.52,6.23,3.25,9.79,8.6,10.6,15.89a47.86,47.86,0,0,1,.26,5.4q0,32.43,0,64.85ZM78.8,141h35.62V125.72q0-32.41,0-64.85a45.88,45.88,0,0,0-.24-5c-.67-6.08-3.62-10.52-8.76-13.2A4.54,4.54,0,0,1,102.68,38c0-3.11,0-6.22,0-9.33s0-6,0-8.94c0-2.05.2-4.07.46-6.48a4.38,4.38,0,0,0-1-3.21,2.63,2.63,0,0,0-1.84-1c-2.61-.11-5.24-.07-7.46,0-1.85.05-2,1.07-2.06,1.51a34.16,34.16,0,0,0-.23,4.81v.39q0,3.85,0,7.71c0,5,0,10.22-.06,15.33a5,5,0,0,1-2,3.35c-.75.61-1.53,1.16-2.29,1.69A21.12,21.12,0,0,0,83.43,46c-4.09,4.07-4.65,9.52-4.65,14.31q0,40,0,80C78.78,140.56,78.79,140.8,78.8,141ZM87.06,38.6Z"/></g></svg>